<svg height="512pt" viewBox="0 0 512.0011 512" width="512pt" xmlns="http://www.w3.org/2000/svg" xmlns:xlink="http://www.w3.org/1999/xlink"><linearGradient id="a"><stop offset="0" stop-color="#662d91"/><stop offset=".437" stop-color="#3873b3"/><stop offset="1" stop-color="#00c9dd"/></linearGradient><linearGradient id="b" gradientTransform="matrix(1.099725 0 0 -1.099725 0 504.203501)" gradientUnits="userSpaceOnUse" x1="33.6335" x2="456.0304" xlink:href="#a" y1="424.8705" y2="2.4735"/><linearGradient id="c" gradientTransform="matrix(1.099725 0 0 -1.099725 0 504.203501)" gradientUnits="userSpaceOnUse" x1="43.3214" x2="465.7183" xlink:href="#a" y1="434.5584" y2="12.1614"/><linearGradient id="d" gradientTransform="matrix(1.099725 0 0 -1.099725 0 504.203501)" gradientUnits="userSpaceOnUse" x1="27.8023" x2="450.1993" xlink:href="#a" y1="419.0394" y2="-3.3576"/><linearGradient id="e" gradientTransform="matrix(1.099725 0 0 -1.099725 0 504.203501)" gradientUnits="userSpaceOnUse" x1="23.9226" x2="446.3195" xlink:href="#a" y1="415.1596" y2="-7.2374"/><linearGradient id="f" gradientTransform="matrix(1.099725 0 0 -1.099725 0 504.203501)" gradientUnits="userSpaceOnUse" x1="-5.1756" x2="417.2213" xlink:href="#a" y1="386.0614" y2="-36.3355"/><linearGradient id="g" gradientTransform="matrix(1.099725 0 0 -1.099725 0 504.203501)" gradientUnits="userSpaceOnUse" x1="8.4035" x2="430.8005" xlink:href="#a" y1="399.6405" y2="-22.7563"/><linearGradient id="h" gradientTransform="matrix(1.099725 0 0 -1.099725 0 504.203501)" gradientUnits="userSpaceOnUse" x1="31.6821" x2="454.079" xlink:href="#a" y1="422.9191" y2=".5222"/><linearGradient id="i" gradientTransform="matrix(1.099725 0 0 -1.099725 0 504.203501)" gradientUnits="userSpaceOnUse" x1="54.9606" x2="477.3576" xlink:href="#a" y1="446.1977" y2="23.8007"/><linearGradient id="j" gradientTransform="matrix(1.099725 0 0 -1.099725 0 504.203501)" gradientUnits="userSpaceOnUse" x1="72.4196" x2="494.8165" xlink:href="#a" y1="463.6566" y2="41.2596"/><linearGradient id="k" gradientTransform="matrix(1.099725 0 0 -1.099725 0 504.203501)" gradientUnits="userSpaceOnUse" x1="-90.5303" x2="331.8667" xlink:href="#a" y1="300.7068" y2="-121.6901"/><linearGradient id="l" gradientTransform="matrix(1.099725 0 0 -1.099725 0 504.203501)" gradientUnits="userSpaceOnUse" x1="157.7742" x2="580.1711" xlink:href="#a" y1="549.0112" y2="126.6143"/><path d="m509.5 326.765625-49.871094-49.867187c.746094-6.941407 1.136719-13.917969 1.171875-20.898438.074219-30.566406-6.757812-60.757812-19.996093-88.3125 27.492187-25.796875 28.867187-69 3.066406-96.492188-25.800782-27.496093-69.003906-28.867187-96.496094-3.066406-1.054688.988282-2.074219 2.011719-3.066406 3.066406-51.890625-24.765624-111.796875-26.605468-165.109375-5.070312v-9.925781l-2.503907-2.5-51.195312-51.199219-2.5-2.5h-123v238.933594h51.992188c-.46875 5.683594-.792969 11.382812-.792969 17.066406.019531 30.550781 6.859375 60.714844 20.019531 88.285156-27.492188 25.800782-28.867188 69.003906-3.066406 96.496094 25.800781 27.492188 69.003906 28.867188 96.496094 3.066406 1.054687-.988281 2.078124-2.011718 3.066406-3.066406 27.570312 13.160156 57.734375 20 88.285156 20.019531 26.324219.054688 52.410156-5.015625 76.800781-14.925781v66.125h179.199219v-182.730469zm-26.632812-2.496094h-22.066407v-22.070312zm-90.332032-256.003906c28.277344 0 51.199219 22.925781 51.199219 51.203125s-22.921875 51.199219-51.199219 51.199219-51.203125-22.921875-51.203125-51.199219c.027344-28.265625 22.9375-51.171875 51.203125-51.203125zm-242.46875-17.066406h-22.066406v-22.066407zm-133-34.132813h93.867188v42.667969c0 4.710937 3.820312 8.535156 8.535156 8.535156h42.664062v153.597657h-145.066406zm102.398438 426.667969c-28.277344 0-51.199219-22.921875-51.199219-51.199219s22.921875-51.199218 51.199219-51.199218 51.203125 22.921874 51.203125 51.199218c-.027344 28.265625-22.9375 51.171875-51.203125 51.199219zm136.535156 0c-26.785156-.023437-53.257812-5.757813-77.65625-16.820313 19.058594-32.449218 8.199219-74.203124-24.25-93.261718-21.300781-12.507813-47.707031-12.507813-69.007812 0-11.0625-24.394532-16.796876-50.867188-16.820313-77.652344 0-5.691406.347656-11.390625.851563-17.066406h110.082031v-154.207032c49.148437-22.078124 105.417969-21.941406 154.453125.375-19.046875 32.453126-8.179688 74.199219 24.269531 93.246094 21.292969 12.496094 47.683594 12.496094 68.976563 0 11.144531 24.367188 16.886718 50.855469 16.835937 77.652344 0 5.691406-.351563 11.390625-.855469 17.066406h-110.078125v154.207032c-24.136719 10.898437-50.320312 16.511718-76.800781 16.460937zm93.867188 51.199219v-204.800782h93.867187v42.667969c0 4.714844 3.820313 8.535157 8.53125 8.535157h42.667969v153.597656zm0 0" fill="url(#b)"/><path d="m34.132812 34.132812h59.734376v17.066407h-59.734376zm0 0" fill="url(#c)"/><path d="m34.132812 68.265625h59.734376v17.066406h-59.734376zm0 0" fill="url(#d)"/><path d="m34.132812 102.398438h110.933594v17.070312h-110.933594zm0 0" fill="url(#e)"/><path d="m93.867188 175.667969-25.601563-25.601563-40.164063 40.167969 12.066407 12.066406 28.097656-28.101562 25.601563 25.601562 48.699218-48.699219-12.066406-12.066406zm0 0" fill="url(#f)"/><path d="m392.535156 435.199219h17.066406v42.667969h-17.066406zm0 0" fill="url(#g)"/><path d="m426.667969 401.066406h17.066406v76.800782h-17.066406zm0 0" fill="url(#h)"/><path d="m460.800781 366.933594h17.066407v110.933594h-17.066407zm0 0" fill="url(#i)"/><path d="m366.933594 298.667969h51.199218v17.066406h-51.199218zm0 0" fill="url(#j)"/><path d="m366.933594 324.269531h25.601562v17.066407h-25.601562zm0 0" fill="url(#i)"/><path d="m366.933594 349.867188h25.601562v17.066406h-25.601562zm0 0" fill="url(#c)"/><path d="m123.734375 384h-8.535156c-2.355469 0-4.265625-1.910156-4.265625-4.265625 0-2.359375 1.910156-4.269531 4.265625-4.269531h21.332031v-17.0625h-8.53125v-8.535156h-17.066406v8.96875c-11.542969 2.367187-18.980469 13.640624-16.613282 25.183593 2.035157 9.914063 10.757813 17.039063 20.878907 17.046875h8.535156c2.355469 0 4.265625 1.910156 4.265625 4.265625 0 2.359375-1.910156 4.269531-4.265625 4.269531h-21.335937v17.066407h8.535156v8.535156h17.066406v-8.96875c11.542969-2.367187 18.980469-13.644531 16.613281-25.1875-2.035156-9.914063-10.757812-17.035156-20.878906-17.046875zm0 0" fill="url(#k)"/><path d="m388.265625 128h8.535156c2.355469 0 4.265625 1.910156 4.265625 4.269531 0 2.355469-1.910156 4.265625-4.265625 4.265625h-21.332031v17.066406h8.53125v8.535157h17.066406v-8.96875c11.542969-2.367188 18.980469-13.644531 16.613282-25.1875-2.035157-9.914063-10.757813-17.035157-20.878907-17.042969h-8.53125c-2.359375 0-4.269531-1.910156-4.269531-4.269531 0-2.355469 1.910156-4.265625 4.269531-4.265625h21.332031v-17.070313h-8.53125v-8.53125h-17.070312v8.96875c-11.539062 2.367188-18.976562 13.640625-16.609375 25.183594 2.03125 9.917969 10.753906 17.039063 20.875 17.046875zm0 0" fill="url(#l)"/></svg>